<svg xmlns="http://www.w3.org/2000/svg" width="1200" height="750" viewBox="0 0 1200 750">
<defs>
  <filter id="s" x="-20%" y="-20%" width="140%" height="140%"><feDropShadow dx="0" dy="8" stdDeviation="14" flood-color="#604943" flood-opacity=".10"/></filter>
  <style>
    .t{font-family:Inter,ui-sans-serif,system-ui,-apple-system,BlinkMacSystemFont,"Segoe UI",sans-serif;fill:#2d2624}.muted{fill:#897b76}.sm{font-size:12px}.xs{font-size:10px}.md{font-size:14px}.lg{font-size:18px;font-weight:700}.node{fill:#fffdfa;stroke:#eee1db;stroke-width:1.2}.line{fill:none;stroke:#d8c8c2;stroke-width:1.5}.accent{stroke:#ff645d}.pill{fill:#fff9f6;stroke:#eadbd5}.coral{fill:#ff5d57}.teal{fill:#45b8a8}.green{fill:#63b979}.orange{fill:#f5a148}.blue{fill:#5e9ee9}
  </style>
</defs>
<rect width="1200" height="750" rx="24" fill="#fbf7f3"/>
<pattern id="dots" width="28" height="28" patternUnits="userSpaceOnUse"><circle cx="2" cy="2" r="1" fill="#d7c7c0" opacity=".28"/></pattern>
<rect x="170" y="68" width="1012" height="664" fill="url(#dots)"/>
<rect x="0" y="0" width="1200" height="68" rx="24" fill="#fffdfb"/>
<line x1="0" y1="68" x2="1200" y2="68" stroke="#eee3de"/>
<circle cx="28" cy="34" r="7" fill="#ff6159"/><circle cx="49" cy="34" r="7" fill="#f7bf4f"/><circle cx="70" cy="34" r="7" fill="#56c271"/>
<g transform="translate(104 15)"><rect x="0" y="0" width="38" height="38" rx="12" fill="#fff1ed" stroke="#ffc0ba"/><path d="M11 15c0-4 3-7 7-7 2 0 3 .5 5 2 1-2 3-3 5-3 4 0 7 3 7 7 0 3-2 5-5 6v8H13v-8c-1-1-2-3-2-5z" fill="none" stroke="#ff5d57" stroke-width="2"/></g>
<text x="152" y="31" class="t lg">Chef</text><text x="152" y="48" class="t xs muted">a friendly living AI workspace</text>
<rect x="286" y="18" width="150" height="34" rx="17" class="pill"/><text x="310" y="39" class="t md">Q2 Financials⌄</text>
<rect x="840" y="18" width="138" height="34" rx="17" class="pill"/><circle cx="861" cy="35" r="5" class="green"/><text x="874" y="39" class="t sm">All systems calm</text>
<rect x="992" y="18" width="98" height="34" rx="17" class="pill"/><text x="1012" y="39" class="t sm">⚙ Advanced</text>
<rect x="0" y="68" width="170" height="664" fill="#fffaf7"/>
<g class="t md"><rect x="14" y="86" width="142" height="38" rx="12" fill="#fff0ec"/><text x="34" y="110" fill="#d94c46">⌂  Home</text><text x="34" y="152">◌  Work</text><text x="34" y="190">□  Files</text><text x="34" y="228">♙  People</text><text x="34" y="266">⌘  Tools</text></g>
<text x="28" y="314" class="t xs muted">YOUR SPACES</text><rect x="14" y="329" width="142" height="34" rx="11" fill="#fff0ec"/><text x="34" y="351" class="t sm">▥  Q2 Financials</text><text x="34" y="390" class="t sm muted">◔  Monthly Ops</text><text x="34" y="427" class="t sm muted">○  Personal</text><text x="34" y="464" class="t sm muted">▣  Archive</text>
<rect x="14" y="520" width="142" height="140" rx="18" fill="#fff1ed"/><circle cx="85" cy="554" r="25" fill="#fff" stroke="#f5d3ca"/><text x="75" y="562" font-size="25">👨‍🍳</text><text x="28" y="594" class="t md" font-weight="700">Chef is here to help</text><text x="28" y="617" class="t xs muted">Ask anything, I'll handle</text><text x="28" y="633" class="t xs muted">the busywork.</text>
<path d="M590 330 C510 280 420 230 363 196" class="line"/><path d="M590 330 C590 250 590 205 590 170" class="line accent" opacity=".55"/><path d="M675 330 C760 270 805 228 832 205" class="line"/><path d="M520 380 C440 390 380 401 340 410" class="line"/><path d="M715 380 C780 390 820 400 850 404" class="line"/><path d="M615 435 C615 485 615 515 615 532" class="line"/>
<g filter="url(#s)"><rect x="485" y="300" width="260" height="155" rx="28" fill="#fffaf7" stroke="#ff9f97" stroke-width="1.3"/></g><circle cx="615" cy="300" r="23" fill="#fff" stroke="#ffd0cb"/><text x="606" y="308" font-size="24" fill="#ff5d57">✦</text><text x="615" y="345" text-anchor="middle" class="t lg">Prepare this month's report</text><text x="615" y="368" text-anchor="middle" class="t lg">and flag anything unusual</text><text x="615" y="402" text-anchor="middle" class="t sm" fill="#dc514a">👨‍🍳 Chef is working •</text><rect x="530" y="420" width="170" height="7" rx="3.5" fill="#f7dfda"/><rect x="530" y="420" width="72" height="7" rx="3.5" class="coral"/><text x="615" y="445" text-anchor="middle" class="t xs muted">2 / 5 ready</text>
<g filter="url(#s)"><rect x="300" y="158" width="166" height="76" rx="20" class="node"/></g><circle cx="330" cy="185" r="16" fill="#e9faf7"/><text x="321" y="190" font-size="16">☺</text><text x="354" y="184" class="t md" font-weight="700">Review Assistant</text><text x="354" y="204" class="t xs muted">Checking anomalies</text><circle cx="315" cy="220" r="4" class="teal"/><line x1="326" y1="220" x2="422" y2="220" stroke="#bbe3dc" stroke-width="3" stroke-linecap="round"/>
<g filter="url(#s)"><rect x="518" y="122" width="195" height="82" rx="22" fill="#fffdfa" stroke="#ffb2aa" stroke-width="1.4"/></g><circle cx="548" cy="153" r="17" fill="#fff0ed"/><text x="539" y="159" font-size="17">✦</text><text x="575" y="151" class="t md" font-weight="700">AI Accountant</text><text x="575" y="172" class="t xs muted">Analyzing numbers</text><circle cx="540" cy="190" r="4" class="coral"/><line x1="551" y1="190" x2="680" y2="190" stroke="#f6c8c4" stroke-width="3" stroke-linecap="round"/><line x1="551" y1="190" x2="615" y2="190" stroke="#ff6f68" stroke-width="3" stroke-linecap="round"/>
<g filter="url(#s)"><rect x="790" y="160" width="180" height="82" rx="20" class="node"/></g><circle cx="820" cy="190" r="16" fill="#eef5ff"/><text x="812" y="195" font-size="16">▤</text><text x="846" y="188" class="t md" font-weight="700">Source Docs</text><text x="846" y="208" class="t xs muted">3 files attached</text><text x="815" y="228" class="t xs muted">PDF   XLSX   DOC   +1</text>
<g filter="url(#s)"><rect x="265" y="376" width="170" height="76" rx="20" class="node"/></g><circle cx="294" cy="404" r="16" fill="#fff4e7"/><text x="285" y="410" font-size="16">◎</text><text x="320" y="401" class="t md" font-weight="700">Browser</text><text x="320" y="421" class="t xs muted">Gathering market data</text><circle cx="282" cy="438" r="4" class="orange"/><line x1="293" y1="438" x2="393" y2="438" stroke="#f4d1a7" stroke-width="3" stroke-linecap="round"/>
<g filter="url(#s)"><rect x="810" y="370" width="170" height="76" rx="20" class="node"/></g><circle cx="840" cy="399" r="16" fill="#eef9f0"/><text x="832" y="405" font-size="16">▤</text><text x="866" y="397" class="t md" font-weight="700">Spreadsheet</text><text x="866" y="418" class="t xs muted">Building analysis</text><circle cx="828" cy="433" r="4" class="green"/><line x1="839" y1="433" x2="936" y2="433" stroke="#bee3c5" stroke-width="3" stroke-linecap="round"/>
<g filter="url(#s)"><rect x="557" y="530" width="118" height="62" rx="18" class="node"/></g><circle cx="580" cy="555" r="14" fill="#edf0f2"/><text x="571" y="561" font-size="14">›_</text><text x="601" y="552" class="t sm" font-weight="700">Terminal</text><text x="601" y="570" class="t xs muted">Running checks</text>
<g filter="url(#s)"><rect x="912" y="245" width="245" height="228" rx="22" fill="#fffdfa" stroke="#eadbd5"/></g><circle cx="945" cy="280" r="19" fill="#fff0ed"/><text x="936" y="286" font-size="18">✦</text><text x="975" y="278" class="t md" font-weight="700">AI Accountant</text><rect x="1067" y="265" width="55" height="22" rx="11" fill="#edf8ef"/><text x="1094" y="280" text-anchor="middle" class="t xs" fill="#40975a">Active</text><text x="935" y="314" class="t xs muted">Your expert for financial analysis,</text><text x="935" y="330" class="t xs muted">modeling, and reporting.</text><line x1="935" y1="348" x2="1133" y2="348" stroke="#eee3de"/><text x="935" y="370" class="t xs" font-weight="700">Current focus</text><text x="935" y="389" class="t xs muted">Reviewing Q2 income statement and</text><text x="935" y="405" class="t xs muted">flagging unusual variances.</text><rect x="932" y="420" width="200" height="36" rx="13" fill="#fff9f6" stroke="#eadbd5"/><text x="944" y="442" class="t xs muted">Message AI Accountant…</text><circle cx="1114" cy="438" r="14" class="coral"/><text x="1108" y="443" font-size="14" fill="#fff">➤</text>
<g filter="url(#s)"><rect x="260" y="516" width="170" height="150" rx="18" fill="#fffdfa" stroke="#eadbd5"/></g><text x="282" y="545" class="t sm">✦  Add AI helper</text><text x="282" y="576" class="t sm">▤  Add file</text><text x="282" y="607" class="t sm">◎  Open browser</text><text x="282" y="638" class="t sm">›_  Open terminal</text>
<g filter="url(#s)"><rect x="468" y="585" width="310" height="42" rx="16" fill="#fffdfa" stroke="#eadbd5"/></g><text x="489" y="610" class="t xs">👨‍🍳  I brought in the right teammates and tools ✦</text>
<g filter="url(#s)"><rect x="310" y="650" width="560" height="70" rx="28" fill="#fffdfa" stroke="#f1d7cf" stroke-width="1.4"/></g><circle cx="344" cy="685" r="19" fill="#fff7f3" stroke="#f4d4ca"/><text x="337" y="692" font-size="22" fill="#ff5d57">+</text><rect x="372" y="668" width="78" height="34" rx="17" class="pill"/><text x="390" y="690" class="t sm">⚙ Tools</text><rect x="458" y="668" width="88" height="34" rx="17" class="pill"/><text x="477" y="690" class="t sm">✦ Simple⌄</text><text x="566" y="690" class="t md muted">Ask Chef anything…</text><circle cx="835" cy="685" r="21" class="coral"/><text x="827" y="692" font-size="19" fill="#fff">➤</text>
<g filter="url(#s)"><rect x="930" y="548" width="210" height="140" rx="22" fill="#fffaf7" stroke="#f2d8cf"/></g><text x="950" y="578" class="t md" font-weight="700">👨‍🍳  Chef needs your okay</text><text x="950" y="603" class="t xs muted">AI Accountant found 2 unusual</text><text x="950" y="619" class="t xs muted">items. Include them in the report?</text><rect x="950" y="643" width="78" height="30" rx="12" fill="#eef8ef"/><text x="989" y="662" text-anchor="middle" class="t xs" fill="#3f9658">✓ Approve</text><rect x="1036" y="643" width="78" height="30" rx="12" fill="#fff1ef"/><text x="1075" y="662" text-anchor="middle" class="t xs" fill="#d5524b">× Not now</text>
</svg>